<?xml version="1.0" encoding="UTF-8" standalone="no"?>
<!-- Created with Inkscape (http://www.inkscape.org/) -->
<svg
   xmlns:dc="http://purl.org/dc/elements/1.1/"
   xmlns:cc="http://creativecommons.org/ns#"
   xmlns:rdf="http://www.w3.org/1999/02/22-rdf-syntax-ns#"
   xmlns:svg="http://www.w3.org/2000/svg"
   xmlns="http://www.w3.org/2000/svg"
   xmlns:sodipodi="http://sodipodi.sourceforge.net/DTD/sodipodi-0.dtd"
   xmlns:inkscape="http://www.inkscape.org/namespaces/inkscape"
   version="1.0"
   width="640"
   height="480"
   id="svg2383"
   sodipodi:version="0.32"
   inkscape:version="0.46"
   sodipodi:docname="kabigami.svg"
   inkscape:output_extension="org.inkscape.output.svg.inkscape">
  <metadata
     id="metadata67">
    <rdf:RDF>
      <cc:Work
         rdf:about="">
        <dc:format>image/svg+xml</dc:format>
        <dc:type
           rdf:resource="http://purl.org/dc/dcmitype/StillImage" />
      </cc:Work>
    </rdf:RDF>
  </metadata>
  <sodipodi:namedview
     inkscape:window-height="480"
     inkscape:window-width="640"
     inkscape:pageshadow="2"
     inkscape:pageopacity="1"
     guidetolerance="10.0"
     gridtolerance="10.0"
     objecttolerance="10.0"
     borderopacity="1.0"
     bordercolor="#666666"
     pagecolor="#b4c5bd"
     id="base"
     showgrid="false" />
  <defs
     id="defs2385">
    <inkscape:perspective
       sodipodi:type="inkscape:persp3d"
       inkscape:vp_x="0 : 240 : 1"
       inkscape:vp_y="0 : 1000 : 0"
       inkscape:vp_z="640 : 240 : 1"
       inkscape:persp3d-origin="320 : 160 : 1"
       id="perspective69" />
  </defs>
  <g
     id="layer3"
     style="opacity:1;display:inline">
    <path
       d="M -286.92387,295.68223 C -42.780203,237.65283 140.86966,381.8485 135.54751,629.61081"
       id="path3318"
       style="opacity:1;fill:#ce945a;fill-opacity:1;fill-rule:nonzero;stroke:#000000;stroke-width:4;stroke-linecap:round;stroke-linejoin:round;stroke-miterlimit:4;stroke-dasharray:none;stroke-opacity:1" />
    <path
       d="M 275.57138,18.483927 C 121.70008,-90.92013 30.24688,116.52425 20.195428,139.3514 C 20.195428,139.3514 -204.69725,243.32278 15.730608,401.43364 C 208.94253,540.02037 244.55544,296.64232 244.55544,296.64232 C 268.53098,282.22434 423.68986,123.80364 275.57138,18.483927 z"
       id="path3246"
       style="opacity:1;fill:#ce945a;fill-opacity:1;fill-rule:nonzero;stroke:#000000;stroke-width:4;stroke-linecap:round;stroke-linejoin:round;stroke-miterlimit:4;stroke-dasharray:none;stroke-opacity:1;display:inline" />
    <path
       d="M 179.48651,144.09179 C 159.56643,170.8073 129.21093,181.90992 111.72861,168.87447 C 94.24631,155.83902 96.22479,123.57738 116.14486,96.861896 C 136.06492,70.146407 166.42047,59.043756 183.90278,72.079205 C 201.38507,85.114672 199.40658,117.37633 179.48651,144.09179 z"
       id="path3250"
       style="opacity:1;fill:#ffffff;fill-opacity:1;fill-rule:nonzero;stroke:#000000;stroke-width:4.79033375;stroke-linecap:round;stroke-linejoin:round;stroke-miterlimit:4;stroke-dasharray:none;stroke-opacity:1;display:inline" />
    <path
       d="M 252.99272,196.46236 C 233.07265,223.17784 202.71711,234.28047 185.2348,221.24502 C 167.75252,208.20957 169.73097,175.94792 189.65105,149.23243 C 209.5711,122.51696 239.92668,111.4143 257.40896,124.44974 C 274.89128,137.48522 272.91277,169.74688 252.99272,196.46236 z"
       id="path3252"
       style="opacity:1;fill:#ffffff;fill-opacity:1;fill-rule:nonzero;stroke:#000000;stroke-width:4.79033375;stroke-linecap:round;stroke-linejoin:round;stroke-miterlimit:4;stroke-dasharray:none;stroke-opacity:1;display:inline" />
    <path
       d="M 16.150396,239.49665 C 16.150396,239.49665 1.9576835,293.23229 45.444988,329.69341 C 89.759005,366.84767 136.36433,344.20629 136.36433,344.20629"
       id="path3268"
       style="opacity:1;fill:none;fill-opacity:1;fill-rule:nonzero;stroke:#000000;stroke-width:4;stroke-linecap:round;stroke-linejoin:round;stroke-miterlimit:4;stroke-dasharray:none;stroke-opacity:1;display:inline" />
    <path
       d="M 167.61054,261.82151 C 152.93695,282.22596 121.48012,284.72843 97.39439,267.40745 C 73.308664,250.08649 65.669837,219.4688 80.343439,199.06438 C 95.01704,178.65998 126.47388,176.15748 150.55963,193.47846 C 174.64533,210.79942 182.28414,241.41714 167.61054,261.82151 z"
       id="path3248"
       style="opacity:1;fill:#000000;fill-opacity:1;fill-rule:nonzero;stroke:none;stroke-width:4;stroke-linecap:round;stroke-linejoin:round;stroke-miterlimit:4;stroke-dasharray:none;stroke-opacity:1;display:inline" />
    <path
       d="M 135.73302,206.45067 L 161.19991,224.7649 L 141.47677,252.19092 L 116.0099,233.87669 L 135.73302,206.45067 z"
       id="path3262"
       style="opacity:1;fill:#ffffff;fill-opacity:1;fill-rule:nonzero;stroke:none;stroke-width:4;stroke-linecap:round;stroke-linejoin:round;stroke-miterlimit:4;stroke-opacity:1;display:inline" />
    <path
       d="M 116.17831,141.33023 C 131.61801,131.01834 150.31071,135.79456 149.22062,155.1153"
       id="path3230"
       style="opacity:1;fill:none;fill-opacity:1;fill-rule:nonzero;stroke:#000000;stroke-width:4;stroke-linecap:round;stroke-linejoin:round;stroke-miterlimit:4;stroke-dasharray:none;stroke-opacity:1;display:inline" />
    <path
       d="M 212.0477,207.65971 C 216.4261,189.61674 205.51733,173.7036 187.74772,181.36649"
       id="path3232"
       style="opacity:1;fill:none;fill-opacity:1;fill-rule:nonzero;stroke:#000000;stroke-width:4;stroke-linecap:round;stroke-linejoin:round;stroke-miterlimit:4;stroke-dasharray:none;stroke-opacity:1;display:inline" />
    <path
       d="M 308.51888,52.415287 C 351.53917,4.7579628 294.03777,-74.635051 347.52058,-83.249625 C 392.42185,-90.481954 368.31045,43.890544 329.74983,87.88051"
       id="path3316"
       style="opacity:1;fill:#ce945a;fill-opacity:1;fill-rule:nonzero;stroke:#000000;stroke-width:4;stroke-linecap:round;stroke-linejoin:round;stroke-miterlimit:4;stroke-dasharray:none;stroke-opacity:1" />
    <path
       d="M 205.69601,-8.0349453 C 216.17666,-71.376248 155.47157,-125.04014 186.4238,-147.76128 C 231.44975,-180.81354 248.24394,-54.527053 244.08845,3.6531433"
       id="path3314"
       style="opacity:1;fill:#ce945a;fill-opacity:1;fill-rule:nonzero;stroke:#000000;stroke-width:4;stroke-linecap:round;stroke-linejoin:round;stroke-miterlimit:4;stroke-dasharray:none;stroke-opacity:1" />
  </g>
  <g
     id="layer2"
     style="opacity:1;display:inline">
    <path
       d="M 461.74719,-50.293354 C 439.23161,5.94418 441.37959,37.023069 466.26728,94.996758"
       id="path3199"
       style="opacity:1;fill:none;fill-opacity:1;fill-rule:nonzero;stroke:#000000;stroke-width:4;stroke-linecap:round;stroke-linejoin:round;stroke-miterlimit:4;stroke-dasharray:none;stroke-opacity:1;display:inline" />
    <path
       d="M 461.71,-49.965432 C 465.41338,-44.463134 475.93764,-45.058025 485.20163,-51.293316 C 494.46558,-57.528592 498.9785,-67.054709 495.2751,-72.557003 C 491.5717,-78.059281 481.04746,-77.464389 471.78349,-71.229113 C 462.51951,-64.993835 458.0066,-55.467716 461.71,-49.965432 z"
       id="path3211"
       style="opacity:1;fill:#8c5ca1;fill-opacity:1;fill-rule:nonzero;stroke:#000000;stroke-width:3.148947;stroke-linecap:round;stroke-linejoin:round;stroke-miterlimit:4;stroke-dasharray:none;stroke-opacity:1;display:inline" />
    <path
       d="M 689.89684,306.40763 C 726.44849,258.10039 754.17789,243.90208 816.67904,235.3026"
       id="path3193"
       style="opacity:1;fill:none;fill-opacity:1;fill-rule:nonzero;stroke:#000000;stroke-width:4;stroke-linecap:round;stroke-linejoin:round;stroke-miterlimit:4;stroke-dasharray:none;stroke-opacity:1;display:inline" />
    <path
       d="M 715.89248,92.815528 C 663.53266,70.56955 596.43174,110.42928 596.82717,167.89381"
       id="path3213"
       style="opacity:1;fill:none;fill-opacity:1;fill-rule:nonzero;stroke:#000000;stroke-width:4;stroke-linecap:round;stroke-linejoin:round;stroke-miterlimit:4;stroke-dasharray:none;stroke-opacity:1;display:inline" />
    <path
       d="M 497.22226,535.06018 C 488.01297,594.9334 497.13624,624.72059 534.49404,675.56095"
       id="path3189"
       style="opacity:1;fill:none;fill-opacity:1;fill-rule:nonzero;stroke:#000000;stroke-width:4;stroke-linecap:round;stroke-linejoin:round;stroke-miterlimit:4;stroke-dasharray:none;stroke-opacity:1;display:inline" />
    <path
       d="M 670.33855,461.91103 C 718.64579,498.46265 732.84411,526.19205 741.44356,588.6932"
       id="path3191"
       style="opacity:1;fill:none;fill-opacity:1;fill-rule:nonzero;stroke:#000000;stroke-width:4;stroke-linecap:round;stroke-linejoin:round;stroke-miterlimit:4;stroke-dasharray:none;stroke-opacity:1;display:inline" />
    <path
       d="M 267.94707,33.468231 C 324.08025,56.24275 344.98348,79.341804 369.49625,137.47501"
       id="path3197"
       style="opacity:1;fill:none;fill-opacity:1;fill-rule:nonzero;stroke:#000000;stroke-width:4;stroke-linecap:round;stroke-linejoin:round;stroke-miterlimit:4;stroke-dasharray:none;stroke-opacity:1;display:inline" />
    <path
       d="M 563.00265,678.28236 C 567.03994,688.23918 553.3307,703.20748 532.40173,711.69363 C 511.47277,720.17986 491.21031,718.98629 487.17304,709.02944 C 483.13579,699.07261 496.84501,684.10436 517.77398,675.61815 C 538.70296,667.13197 558.9654,668.32551 563.00265,678.28236 z"
       id="path3201"
       style="opacity:1;fill:#8c5ca1;fill-opacity:1;fill-rule:nonzero;stroke:#000000;stroke-width:4;stroke-linecap:round;stroke-linejoin:round;stroke-miterlimit:4;stroke-dasharray:none;stroke-opacity:1;display:inline" />
    <path
       d="M 800.17862,583.09811 C 804.21589,593.05496 790.50669,608.02322 769.57767,616.5094 C 748.64873,624.99563 728.38626,623.80203 724.34902,613.84519 C 720.31175,603.88836 734.02096,588.92012 754.94994,580.43393 C 775.87893,571.94772 796.1414,573.14126 800.17862,583.09811 z"
       id="path3203"
       style="opacity:1;fill:#8c5ca1;fill-opacity:1;fill-rule:nonzero;stroke:#000000;stroke-width:4;stroke-linecap:round;stroke-linejoin:round;stroke-miterlimit:4;stroke-dasharray:none;stroke-opacity:1;display:inline" />
    <path
       d="M 854.44009,219.26992 C 858.69075,229.34173 853.9663,240.96572 843.89449,245.21637 C 833.82272,249.46702 822.19872,244.74259 817.94808,234.6708 C 813.69743,224.599 818.42185,212.975 828.49368,208.72436 C 838.56547,204.47371 850.18945,209.19814 854.44009,219.26992 z"
       id="path3207"
       style="opacity:1;fill:#8c5ca1;fill-opacity:1;fill-rule:nonzero;stroke:#000000;stroke-width:4;stroke-linecap:round;stroke-linejoin:round;stroke-miterlimit:4;stroke-dasharray:none;stroke-opacity:1;display:inline" />
    <path
       d="M 269.92527,31.226513 C 271.32168,37.710376 263.59511,44.880718 252.67848,47.231754 C 241.76188,49.582784 231.76875,46.228615 230.37234,39.744745 C 228.97593,33.260899 236.70253,26.09054 247.61915,23.739511 C 258.53572,21.388494 268.52891,24.742646 269.92527,31.226513 z"
       id="path3209"
       style="opacity:1;fill:#8c5ca1;fill-opacity:1;fill-rule:nonzero;stroke:#000000;stroke-width:3.148947;stroke-linecap:round;stroke-linejoin:round;stroke-miterlimit:4;stroke-dasharray:none;stroke-opacity:1;display:inline" />
    <path
       d="M 420.52142,111.69998 C 595.865,41.698148 637.01316,238.75817 644.77707,261.94076 C 653.94151,289.30539 859.8029,394.90704 578.07636,509.58204 C 322.37218,613.66482 377.38497,399.36548 366.63754,373.13695 C 356.89167,349.35265 251.73205,179.09042 420.52142,111.69998 z"
       id="path3183"
       style="opacity:1;fill:#618f82;fill-opacity:1;fill-rule:nonzero;stroke:#000000;stroke-width:4;stroke-linecap:round;stroke-linejoin:round;stroke-miterlimit:4;stroke-dasharray:none;stroke-opacity:1;display:inline" />
    <path
       d="M 561.89469,228.41996 C 570.44593,249.83011 559.94658,274.17971 538.4586,282.77172 C 516.97062,291.36383 492.59103,280.96069 484.03983,259.55054 C 475.48858,238.14033 485.98795,213.79073 507.47589,205.19871 C 528.96384,196.60665 553.34347,207.00979 561.89469,228.41996 z"
       id="path3161"
       style="opacity:1;fill:#ffffff;fill-opacity:1;fill-rule:nonzero;stroke:#000000;stroke-width:4;stroke-linecap:round;stroke-linejoin:round;stroke-miterlimit:4;stroke-dasharray:none;stroke-opacity:1;display:inline" />
    <path
       d="M 447.68267,200.43557 C 402.54034,144.47377 349.61763,167.9233 361.51441,241.17676"
       id="path3170"
       style="opacity:1;fill:none;fill-opacity:1;fill-rule:nonzero;stroke:#000000;stroke-width:4;stroke-linecap:round;stroke-linejoin:round;stroke-miterlimit:4;stroke-dasharray:none;stroke-opacity:1;display:inline" />
    <path
       d="M 458.89698,196.53535 C 455.42381,122.53639 499.1711,103.22018 543.50813,163.85828"
       id="path3172"
       style="opacity:1;fill:none;fill-opacity:1;fill-rule:nonzero;stroke:#000000;stroke-width:4;stroke-linecap:round;stroke-linejoin:round;stroke-miterlimit:4;stroke-dasharray:none;stroke-opacity:1;display:inline" />
    <path
       d="M 424.95485,353.21377 C 428.87826,362.88982 423.83046,374.0807 413.68752,378.19346 C 403.5446,382.30616 392.12842,377.79097 388.20503,368.11493 C 384.28163,358.43891 389.32936,347.24802 399.4723,343.13526 C 409.61528,339.02255 421.03147,343.53772 424.95485,353.21377 z"
       id="path3181"
       style="opacity:1;fill:#8c5ca1;fill-opacity:1;fill-rule:nonzero;stroke:none;stroke-width:4.50370407;stroke-linecap:round;stroke-linejoin:round;stroke-miterlimit:4;stroke-opacity:1;display:inline" />
    <path
       d="M 625.85378,267.11942 C 629.77718,276.79544 624.72944,287.9863 614.58647,292.09905 C 604.44353,296.21174 593.02734,291.6966 589.10397,282.02056 C 585.18055,272.34449 590.22828,261.15359 600.37123,257.04088 C 610.51419,252.92813 621.93038,257.44334 625.85378,267.11942 z"
       id="path3184"
       style="opacity:1;fill:#8c5ca1;fill-opacity:1;fill-rule:nonzero;stroke:none;stroke-width:4.50370407;stroke-linecap:round;stroke-linejoin:round;stroke-miterlimit:4;stroke-opacity:1;display:inline" />
    <path
       d="M 718.2204,93.891763 C 714.94886,99.661323 720.1775,108.81418 729.89145,114.32229 C 739.60543,119.83038 750.14432,119.61823 753.41578,113.84868 C 756.68734,108.07916 751.45867,98.926283 741.74474,93.41815 C 732.03078,87.910035 721.49189,88.122248 718.2204,93.891763 z"
       id="path3215"
       style="opacity:1;fill:#8c5ca1;fill-opacity:1;fill-rule:nonzero;stroke:#000000;stroke-width:3.148947;stroke-linecap:round;stroke-linejoin:round;stroke-miterlimit:4;stroke-dasharray:none;stroke-opacity:1;display:inline" />
    <path
       d="M 475.96532,263.99794 C 484.36674,285.4238 473.84728,309.84609 452.48429,318.51194 C 431.12129,327.1778 406.96469,316.82179 398.56327,295.39594 C 390.16179,273.97001 400.68131,249.54775 422.04424,240.88192 C 443.40722,232.21606 467.56385,242.57205 475.96532,263.99794 z"
       id="path2454"
       style="opacity:1;fill:#ffffff;fill-opacity:1;fill-rule:nonzero;stroke:#000000;stroke-width:4;stroke-linecap:round;stroke-linejoin:round;stroke-miterlimit:4;stroke-dasharray:none;stroke-opacity:1;display:inline" />
    <path
       d="M 368.02457,432.90324 C 281.78062,452.15773 292.0994,544.44528 415.68945,498.17745"
       id="path3195"
       style="opacity:1;fill:none;fill-opacity:1;fill-rule:nonzero;stroke:#000000;stroke-width:4;stroke-linecap:round;stroke-linejoin:round;stroke-miterlimit:4;stroke-dasharray:none;stroke-opacity:1;display:inline" />
    <path
       d="M 192.45481,307.1356 C 219.595,242.60432 273.45687,224.13191 326.88955,269.35718"
       id="path3217"
       style="opacity:1;fill:none;fill-opacity:1;fill-rule:nonzero;stroke:#000000;stroke-width:4;stroke-linecap:round;stroke-linejoin:round;stroke-miterlimit:4;stroke-dasharray:none;stroke-opacity:1;display:inline" />
    <path
       d="M 190.31829,306.82489 C 196.70779,308.60379 199.46268,318.77852 196.46755,329.53623 C 193.47246,340.294 185.85595,347.58119 179.46645,345.80223 C 173.07696,344.02331 170.32206,333.84861 173.31719,323.09086 C 176.31231,312.3331 183.92878,305.04593 190.31829,306.82489 z"
       id="path3219"
       style="opacity:1;fill:#8c5ca1;fill-opacity:1;fill-rule:nonzero;stroke:#000000;stroke-width:3.148947;stroke-linecap:round;stroke-linejoin:round;stroke-miterlimit:4;stroke-dasharray:none;stroke-opacity:1;display:inline" />
    <path
       d="M 564.14075,323.62568 C 573.5847,346.91656 558.93611,374.86678 531.44311,386.01451 C 503.95012,397.16228 473.97235,387.30701 464.52843,364.01602 C 455.08451,340.72515 469.73304,312.77493 497.22608,301.62719 C 524.71907,290.47944 554.69687,300.33473 564.14075,323.62568 z"
       id="path2385"
       style="opacity:1;fill:#8c5ca1;fill-opacity:1;fill-rule:nonzero;stroke:#000000;stroke-width:4;stroke-linecap:round;stroke-linejoin:round;stroke-miterlimit:4;stroke-dasharray:none;stroke-opacity:1;display:inline" />
    <path
       d="M 494.66385,320.01317 L 523.73343,308.22618 L 536.42718,339.53203 L 507.35766,351.31906 L 494.66385,320.01317 z"
       id="rect3176"
       style="opacity:1;fill:#ffffff;fill-opacity:1;fill-rule:nonzero;stroke:none;stroke-width:4;stroke-linecap:round;stroke-linejoin:round;stroke-miterlimit:4;stroke-opacity:1;display:inline" />
    <path
       d="M 443.80421,433.49199 C 470.91216,418.7065 516.80444,476.67699 562.1823,453.31107 C 614.00696,426.62557 597.79848,362.74402 626.95775,354.03741"
       id="path3223"
       style="opacity:1;fill:none;fill-opacity:1;fill-rule:nonzero;stroke:#000000;stroke-width:4;stroke-linecap:round;stroke-linejoin:round;stroke-miterlimit:4;stroke-dasharray:none;stroke-opacity:1" />
    <path
       d="M 510.31853,272.54448 C 509.83914,243.15267 530.06527,242.64526 543.50675,265.27085"
       id="path3226"
       style="opacity:1;fill:none;fill-opacity:1;fill-rule:nonzero;stroke:#000000;stroke-width:4;stroke-linecap:round;stroke-linejoin:round;stroke-miterlimit:4;stroke-dasharray:none;stroke-opacity:1;display:inline" />
    <path
       d="M 465.30405,290.784 C 446.71995,271.78593 431.82169,280.85249 433.89502,306.80269"
       id="path3228"
       style="opacity:1;fill:none;fill-opacity:1;fill-rule:nonzero;stroke:#000000;stroke-width:4;stroke-linecap:round;stroke-linejoin:round;stroke-miterlimit:4;stroke-dasharray:none;stroke-opacity:1;display:inline" />
    <path
       d="M 445.61004,471.91345 C 453.23149,479.75062 453.05644,492.2968 445.21923,499.91833 C 437.38202,507.53983 424.83584,507.36477 417.21432,499.52754 C 409.59285,491.69036 409.76792,479.14415 417.60514,471.52266 C 425.44238,463.90116 437.98856,464.07621 445.61004,471.91345 z"
       id="path3205"
       style="opacity:1;fill:#8c5ca1;fill-opacity:1;fill-rule:nonzero;stroke:#000000;stroke-width:4;stroke-linecap:round;stroke-linejoin:round;stroke-miterlimit:4;stroke-dasharray:none;stroke-opacity:1;display:inline" />
  </g>
  <g
     id="layer4"
     style="opacity:1;display:inline">
    <path
       d="M 40.805043,364.59637 C 38.768427,365.04441 38.539108,368.6372 39.03497,370.6627 C 39.497663,372.55272 41.534735,374.00009 43.409536,373.47916 C 45.370525,372.93428 45.867202,370.03149 45.36864,368.05822 C 44.917446,366.27243 42.603935,364.20062 40.805043,364.59637 z"
       id="path3325"
       style="opacity:1;fill:#b2af3d;fill-opacity:1;fill-rule:nonzero;stroke:#000000;stroke-width:1.5;stroke-linecap:round;stroke-linejoin:round;stroke-miterlimit:4;stroke-dasharray:none;stroke-opacity:1" />
    <path
       d="M 35.496454,382.5461 L 56.148936,365.76596 C 60.343971,363.1844 63.570921,368.99291 60.343971,370.92908 L 49.049645,378.67376 L 60.989361,378.35106 C 54.212765,384.15957 50.01773,386.09575 57.762411,391.25887 C 48.993979,393.19504 42.91844,390.29079 47.113475,383.51419 L 35.496454,382.5461 z"
       id="path3327"
       style="opacity:1;fill:#b2af3d;fill-opacity:1;fill-rule:nonzero;stroke:#000000;stroke-width:1.5;stroke-linecap:round;stroke-linejoin:round;stroke-miterlimit:4;stroke-dasharray:none;stroke-opacity:1" />
    <path
       d="M 72.606382,370.92908 L 73.897163,367.05674 C 78.092198,362.21631 81.641843,366.08865 80.996453,369.3156 L 77.769503,376.0922 C 77.769503,376.0922 87.017771,373.60632 89.386524,375.7695 C 91.602579,377.79323 87.178095,383.741 89.386524,385.77305 C 90.244363,386.56238 93.258865,385.45036 93.258865,385.45036 C 93.258865,385.45036 90.302048,389.33755 88.418439,389.96809 C 86.664574,390.5552 83.524698,390.69726 82.287233,389.3227 C 80.732706,387.59595 83.836763,383.30925 82.287233,381.57801 C 81.117935,380.27159 75.510638,382.5461 75.510638,382.5461 L 73.251773,391.58156 L 67.443262,389.64539 L 68.411347,385.77305 C 60.666666,389.64539 59.212471,384.32299 68.734042,378.35106 C 63.248227,376.73759 64.539006,372.54256 72.606382,370.92908 z"
       id="path3329"
       style="opacity:1;fill:#b2af3d;fill-opacity:1;fill-rule:nonzero;stroke:#000000;stroke-width:1.5;stroke-linecap:round;stroke-linejoin:round;stroke-miterlimit:4;stroke-dasharray:none;stroke-opacity:1" />
    <path
       d="M 104.87589,369.6383 C 100.55597,369.10227 94.901546,380.43379 96.16312,385.77305 C 97.460921,391.26564 103.89317,389.01464 107.45745,385.45036 C 98.421989,387.06384 108.33241,370.0672 104.87589,369.6383 z"
       id="path3331"
       style="opacity:1;fill:#b2af3d;fill-opacity:1;fill-rule:nonzero;stroke:#000000;stroke-width:1.5;stroke-linecap:round;stroke-linejoin:round;stroke-miterlimit:4;stroke-dasharray:none;stroke-opacity:1" />
    <path
       d="M 121.33333,371.25177 C 118.35491,370.72642 115.81456,376.63136 115.52482,379.64184 C 115.31313,381.84138 116.23739,385.1688 118.42908,385.45036 C 120.94215,385.77321 122.75022,381.47639 123.2695,378.99645 C 123.79669,376.47879 123.86649,371.69859 121.33333,371.25177 z"
       id="path3333"
       style="opacity:1;fill:#b2af3d;fill-opacity:1;fill-rule:nonzero;stroke:#000000;stroke-width:1.5;stroke-linecap:round;stroke-linejoin:round;stroke-miterlimit:4;stroke-dasharray:none;stroke-opacity:1" />
    <path
       d="M 135.85461,367.05673 C 132.87619,366.53138 127.10888,377.27675 126.81914,380.28723 C 126.60745,382.48677 125.5826,385.71475 129.40071,385.45036 C 130.61862,385.36602 132.19149,385.04431 134.24113,382.2234 C 130.73749,380.70628 138.38777,367.50355 135.85461,367.05673 z"
       id="path3335"
       style="opacity:1;fill:#b2af3d;fill-opacity:1;fill-rule:nonzero;stroke:#000000;stroke-width:1.5;stroke-linecap:round;stroke-linejoin:round;stroke-miterlimit:4;stroke-dasharray:none;stroke-opacity:1" />
    <path
       d="M 143.92198,374.47872 C 145.85815,370.60638 146.85344,364.10737 150.05319,365.12057 C 152.82349,365.99779 150.37589,371.89716 149.7305,374.80142 C 155.00722,377.67853 152.42144,380.14004 147.75518,380.0982 C 144.20553,386.8748 139.32879,393.18639 137.14539,392.54964 C 135.81254,392.16095 139.85094,383.3902 141.66312,379.96454 C 139.08156,379.31915 136.70915,374.85263 143.92198,374.47872 z"
       id="path3337"
       style="opacity:1;fill:#b2af3d;fill-opacity:1;fill-rule:nonzero;stroke:#000000;stroke-width:1.5;stroke-linecap:round;stroke-linejoin:round;stroke-miterlimit:4;stroke-dasharray:none;stroke-opacity:1" />
    <path
       d="M 158.12056,389.64539 C 158.12056,391.24853 156.89174,392.54964 155.37766,392.54964 C 153.86357,392.54964 152.63475,391.24853 152.63475,389.64539 C 152.63475,388.04224 153.86357,386.74113 155.37766,386.74113 C 156.89174,386.74113 158.12056,388.04224 158.12056,389.64539 z"
       transform="translate(0.322695,0.6453901)"
       id="path3339"
       style="fill:#b2af3d;fill-opacity:1;fill-rule:nonzero;stroke:#000000;stroke-width:1.5;stroke-linecap:round;stroke-linejoin:round;stroke-miterlimit:4;stroke-opacity:1" />
    <path
       d="M 158.44326,384.15958 C 156.86911,383.37411 158.81378,375.02987 161.34751,368.99291 C 163.56908,363.6997 169.77961,365.97976 168.12411,370.60638 C 165.84451,376.97718 160.17344,385.0229 158.44326,384.15958 z"
       id="path3342"
       style="opacity:1;fill:#b2af3d;fill-opacity:1;fill-rule:nonzero;stroke:#000000;stroke-width:1.5;stroke-linecap:round;stroke-linejoin:round;stroke-miterlimit:4;stroke-dasharray:none;stroke-opacity:1" />
    <path
       d="M 32.147642,406.33034 L 31.691283,418.65205 L 39.563487,415.34345 C 38.194408,421.27613 35.475825,427.46327 30.684048,434.76502 L 35.247645,442.97949 C 39.811242,436.59045 46.066614,419.10842 46.979333,413.40392 C 46.979333,413.40392 57.002436,409.41396 58.160144,410.89394 C 59.793611,412.98212 47.112997,437.04682 47.112997,437.04682 L 54.414752,440.6977 C 54.414752,440.6977 71.514919,407.59162 67.059158,401.76674 C 64.431673,398.33191 48.120232,402.90764 48.120232,402.90764 L 49.26113,396.74679 L 41.274836,397.65951 L 40.133937,404.5049 L 32.147642,406.33034 z"
       id="path2433"
       style="opacity:1;fill:#9e3d2d;fill-opacity:1;fill-rule:nonzero;stroke:#000000;stroke-width:1.5;stroke-linecap:round;stroke-linejoin:round;stroke-miterlimit:4;stroke-dasharray:none;stroke-opacity:1" />
    <path
       d="M 77.917276,416.51064 C 77.917276,416.51064 97.084384,410.1216 97.084384,410.1216 C 97.084384,410.1216 95.715304,419.70515 95.715304,419.70515 C 95.715304,419.70515 76.548198,424.72511 76.548198,424.72511 C 76.548198,424.72511 74.010812,432.36863 77.917277,435.22138 C 79.658224,436.49273 95.226514,431.30317 95.226514,431.30317 L 98.665424,438.76153 C 98.665424,438.76153 76.179799,446.9303 70.080863,440.83136 C 66.222118,436.97261 71.071881,406.92708 71.071881,406.92708 C 71.071881,406.92708 79.742716,404.18892 79.742716,404.18892 C 79.742716,404.18892 77.917276,416.51064 77.917276,416.51064 z"
       id="path2434"
       style="opacity:1;fill:#9e3d2d;fill-opacity:1;fill-rule:nonzero;stroke:#000000;stroke-width:1.5;stroke-linecap:round;stroke-linejoin:round;stroke-miterlimit:4;stroke-dasharray:none;stroke-opacity:1" />
    <path
       d="M 92.771974,394.69392 L 89.027804,406.03139 L 107.17078,398.42958 L 101.38572,409.77272 L 92.771974,394.69392 z"
       id="path3216"
       style="opacity:1;fill:#9e3d2d;fill-opacity:1;fill-rule:nonzero;stroke:#000000;stroke-width:1.5;stroke-linecap:round;stroke-linejoin:round;stroke-miterlimit:4;stroke-dasharray:none;stroke-opacity:1" />
    <path
       d="M 111.91135,406.10284 L 100.61702,436.11348 L 110.29787,439.01773 L 118.68794,408.6844 L 111.91135,406.10284 z"
       id="path3218"
       style="opacity:1;fill:#9e3d2d;fill-opacity:1;fill-rule:nonzero;stroke:#000000;stroke-width:1.5;stroke-linecap:round;stroke-linejoin:round;stroke-miterlimit:4;stroke-dasharray:none;stroke-opacity:1" />
    <path
       d="M 121.20567,408.03901 L 119.91489,440.9539 L 138.89008,435.46809 L 140.82624,424.81915 L 127.65957,429.98227 L 129.59574,406.42553 L 121.20567,408.03901 z"
       id="path3220"
       style="opacity:1;fill:#9e3d2d;fill-opacity:1;fill-rule:nonzero;stroke:#000000;stroke-width:1.5;stroke-linecap:round;stroke-linejoin:round;stroke-miterlimit:4;stroke-dasharray:none;stroke-opacity:1" />
    <path
       d="M 159.54256,414.49292 C 159.54256,418.05547 156.57892,420.94682 152.92731,420.94682 C 149.27569,420.94682 146.31206,418.05547 146.31206,414.49292 C 146.31206,410.93037 149.27569,408.03902 152.92731,408.03902 C 156.57892,408.03902 159.54256,410.93037 159.54256,414.49292 z"
       id="path3222"
       style="fill:#9e3d2d;fill-opacity:1;fill-rule:nonzero;stroke:#000000;stroke-width:1.5;stroke-linecap:round;stroke-linejoin:round;stroke-miterlimit:4;stroke-opacity:1" />
    <path
       d="M 142.43972,432.24114 L 148.57092,440.30851 L 171.80496,425.78723 L 166.31915,420.30142 L 142.43972,432.24114 z"
       id="path3225"
       style="opacity:1;fill:#9e3d2d;fill-opacity:1;fill-rule:nonzero;stroke:#000000;stroke-width:1.5;stroke-linecap:round;stroke-linejoin:round;stroke-miterlimit:4;stroke-dasharray:none;stroke-opacity:1" />
    <path
       d="M 181.91135,406.10284 L 170.61702,436.11348 L 180.29787,439.01773 L 188.68794,408.6844 L 181.91135,406.10284 z"
       id="path3235"
       style="opacity:1;fill:#9e3d2d;fill-opacity:1;fill-rule:nonzero;stroke:#000000;stroke-width:1.5;stroke-linecap:round;stroke-linejoin:round;stroke-miterlimit:4;stroke-dasharray:none;stroke-opacity:1" />
    <path
       d="M 191.20567,408.03901 L 189.91489,440.9539 L 208.89008,435.46809 L 210.82624,424.81915 L 197.65957,429.98227 L 199.59574,406.42553 L 191.20567,408.03901 z"
       id="path3237"
       style="opacity:1;fill:#9e3d2d;fill-opacity:1;fill-rule:nonzero;stroke:#000000;stroke-width:1.5;stroke-linecap:round;stroke-linejoin:round;stroke-miterlimit:4;stroke-dasharray:none;stroke-opacity:1" />
    <path
       d="M 229.54256,414.49292 C 229.54256,418.05547 226.57892,420.94682 222.92731,420.94682 C 219.27569,420.94682 216.31206,418.05547 216.31206,414.49292 C 216.31206,410.93037 219.27569,408.03902 222.92731,408.03902 C 226.57892,408.03902 229.54256,410.93037 229.54256,414.49292 z"
       id="path3239"
       style="fill:#9e3d2d;fill-opacity:1;fill-rule:nonzero;stroke:#000000;stroke-width:1.5;stroke-linecap:round;stroke-linejoin:round;stroke-miterlimit:4;stroke-opacity:1" />
    <path
       d="M 212.43972,432.24114 L 218.57092,440.30851 L 241.80496,425.78723 L 236.31915,420.30142 L 212.43972,432.24114 z"
       id="path3241"
       style="opacity:1;fill:#9e3d2d;fill-opacity:1;fill-rule:nonzero;stroke:#000000;stroke-width:1.5;stroke-linecap:round;stroke-linejoin:round;stroke-miterlimit:4;stroke-dasharray:none;stroke-opacity:1" />
  </g>
</svg>
